<svg xmlns="http://www.w3.org/2000/svg" width="140" height="140"><path fill="#fb6620" d="M128.206 56.126c-2.59-1.105-13.696.123-16.784-2.662-2.176-2.01-2.313-5.646-3.167-10.492-1.421-8.121-2.014-9.959-3.494-13.156C99.375 18.423 86.463 8.667 74.73 8.667H47.541c-21.394 0-38.874 17.461-38.874 38.771v45.203c0 21.271 17.48 38.691 38.874 38.691h44.673c21.391 0 38.75-17.42 38.876-38.691l.243-31.309c0 .001 0-3.872-3.127-5.206zM48.032 40.351h21.556c4.114 0 7.448 3.318 7.448 7.373 0 4.061-3.334 7.416-7.448 7.416H48.032c-4.114 0-7.444-3.355-7.444-7.416 0-4.055 3.33-7.373 7.444-7.373zm43.812 59.095H48.032c-4.114 0-7.444-3.361-7.444-7.375 0-4.059 3.33-7.379 7.444-7.379h43.812c4.073 0 7.405 3.32 7.405 7.379 0 4.014-3.332 7.375-7.405 7.375z"/><path fill="#ea4606" d="M15.851 114.964c7.057 9.883 18.642 16.369 31.69 16.369h44.673c13.046 0 24.585-6.486 31.637-16.369h-108z"/><path fill="#f9a121" d="M48.032 59.933h21.556c4.114 0 7.515-6.881 7.515-10.941 0-.84-.039.08-.503 1.133-1.011 2.893-3.75 5.016-7.012 5.016H48.032c-3.261 0-5.999-2.123-7.007-5.016-.43-1.143-.461-1.656-.461-.812 0 4.057 3.354 10.62 7.468 10.62z"/><path fill="#f9a121" d="M47.541 13.46H74.73c11.732 0 24.645 9.754 30.03 21.146 1.48 3.197 2.073 5.035 3.494 13.156.854 4.848.991 8.482 3.167 10.492 3.088 2.785 14.194 1.557 16.784 2.664 2.482 1.059 2.987 3.691 3.095 4.742l.032-4.328s0-3.873-3.127-5.207c-2.59-1.105-13.696.123-16.784-2.662-2.176-2.01-2.313-5.646-3.167-10.492-1.421-8.121-2.014-9.959-3.494-13.156C99.375 18.423 86.463 8.667 74.73 8.667H47.541c-21.394 0-38.874 17.461-38.874 38.771v4.791c0-21.31 17.48-38.769 38.874-38.769zM48.032 104.239h43.812c4.073 0 7.579-6.273 7.579-10.287 0-.846.04-1.396-.615.506-1.009 2.869-3.74 4.988-6.964 4.988H48.032c-3.256 0-5.991-2.119-7.005-4.988-.553-1.574-.521-1.281-.521-.436 0 4.014 3.412 10.217 7.526 10.217z"/><path fill="none" stroke="#33363a" stroke-linecap="round" stroke-linejoin="round" stroke-miterlimit="10" stroke-width="3" d="M128.206 56.126c-2.59-1.105-13.696.123-16.784-2.662-2.176-2.01-2.313-5.646-3.167-10.492-1.421-8.121-2.014-9.959-3.494-13.156C99.375 18.423 86.463 8.667 74.73 8.667H47.541c-21.394 0-38.874 17.461-38.874 38.771v45.203c0 21.271 17.48 38.691 38.874 38.691h44.673c21.391 0 38.75-17.42 38.876-38.691l.243-31.309c0 .001 0-3.872-3.127-5.206zM48.032 40.351h21.556c4.114 0 7.448 3.318 7.448 7.373 0 4.061-3.334 7.416-7.448 7.416H48.032c-4.114 0-7.444-3.355-7.444-7.416 0-4.055 3.33-7.373 7.444-7.373zm43.812 59.095H48.032c-4.114 0-7.444-3.361-7.444-7.375 0-4.059 3.33-7.379 7.444-7.379h43.812c4.073 0 7.405 3.32 7.405 7.379 0 4.014-3.332 7.375-7.405 7.375zM14.863 131.333h6.232M33.352 131.333h16.441M26.702 131.333h1.162M125.137 131.333h-6.232M106.648 131.333h-16.44M113.298 131.333h-1.162"/></svg>